<svg width="24" height="24" viewBox="0 0 24 24" fill="none" xmlns="http://www.w3.org/2000/svg">
<path d="M18 4l-2 2c-1.4-1.4-3.6-1.4-5 0L9 4l-3 3v11c0 1.1.9 2 2 2h8c1.1 0 2-.9 2-2V7l-3-3z" fill="currentColor"/>
<path d="M6 6l2-2 2 2-2 2-2-2zm10 0l2-2 2 2-2 2-2-2z" fill="currentColor"/>
<circle cx="9" cy="12" r="1" fill="white"/>
<circle cx="15" cy="12" r="1" fill="white"/>
<path d="M12 16c-.6 0-1-.4-1-1s.4-1 1-1 1 .4 1 1-.4 1-1 1z" fill="white"/>
<path d="M10 14l1 1h2l1-1" stroke="white" stroke-width="1.5" fill="none" stroke-linecap="round"/>
</svg>