<svg width="24" height="24" viewBox="0 0 24 24" fill="none" xmlns="http://www.w3.org/2000/svg">
<path d="M20.5 8c-.8-2.1-2.9-3.5-5.3-3.5-1.1 0-2.1.3-2.9.9L12 5.5l-.3-.1c-.8-.6-1.8-.9-2.9-.9C6.4 4.5 4.3 5.9 3.5 8L3 9v7c0 1.1.9 2 2 2h2c1.1 0 2-.9 2-2v-3h4v3c0 1.1.9 2 2 2h2c1.1 0 2-.9 2-2V9l-.5-1zM7 14H5v-3h2v3zm10 0h-2v-3h2v3z" fill="currentColor"/>
<circle cx="8.5" cy="10" r="1" fill="currentColor"/>
<circle cx="15.5" cy="10" r="1" fill="currentColor"/>
<path d="M12 14c-.6 0-1-.4-1-1s.4-1 1-1 1 .4 1 1-.4 1-1 1z" fill="currentColor"/>
</svg>