<svg width="24" height="24" viewBox="0 0 24 24" fill="none" xmlns="http://www.w3.org/2000/svg">
<path d="M12 2C8.7 2 6 4.7 6 8s2.7 6 6 6c1.2 0 2.3-.3 3.3-.9L18 16l3-4-3-4-2.7 2.9C14.3 10.3 13.2 10 12 10c-1.1 0-2 .9-2 2s.9 2 2 2c.6 0 1.1-.3 1.4-.7L16 14l1.5-2L16 10l-2.6 1.3c-.3-.4-.8-.7-1.4-.7-1.1 0-2 .9-2 2s.9 2 2 2z" fill="currentColor"/>
<path d="M3 12c0-1.7.6-3.2 1.5-4.5L2 4l2.5 3.5C5.9 6.6 7 6 8.2 6 9.2 6 10.1 6.4 10.8 7c-.3.6-.5 1.3-.5 2 0 .7.2 1.4.5 2-.7.6-1.6 1-2.6 1-1.2 0-2.3-.6-2.8-1.5L2 14l2.5-3.5C3.6 9.2 3 10.7 3 12z" fill="currentColor"/>
<circle cx="15" cy="9" r="1" fill="white"/>
<path d="M18 8l3 4-3 4" stroke="currentColor" stroke-width="2" fill="none" stroke-linecap="round" stroke-linejoin="round"/>
</svg>