<svg width="24" height="24" viewBox="0 0 24 24" fill="none" xmlns="http://www.w3.org/2000/svg">
<path d="M8 2c-1.1 0-2 .9-2 2v6c0 .6.2 1.1.6 1.4L7 12c0 2.2 1.8 4 4 4h2c2.2 0 4-1.8 4-4l.4-.6c.4-.3.6-.8.6-1.4V4c0-1.1-.9-2-2-2s-2 .9-2 2v4h-4V4c0-1.1-.9-2-2-2z" fill="currentColor"/>
<path d="M4 4c-1.1 0-2 .9-2 2v6c0 1.1.9 2 2 2 1.1 0 2-.9 2-2V6c0-1.1-.9-2-2-2z" fill="currentColor"/>
<path d="M20 4c1.1 0 2 .9 2 2v6c0 1.1-.9 2-2 2-1.1 0-2-.9-2-2V6c0-1.1.9-2 2-2z" fill="currentColor"/>
<circle cx="9.5" cy="10" r="1" fill="white"/>
<circle cx="14.5" cy="10" r="1" fill="white"/>
<path d="M11 14h2" stroke="white" stroke-width="1.5" stroke-linecap="round"/>
<path d="M10 16c.5.5 1.2.8 2 .8s1.5-.3 2-.8" stroke="white" stroke-width="1.5" fill="none" stroke-linecap="round"/>
</svg>